# xmcd
#
# Track frame offsets: 
#        150
#        12788
#        22868
#        31698
#        43251
#        53599
#        63017
#        73549
#        86041
#        97073
#        106592
#        121318
#        132208
#        143333
#        155616
#        166996
#        177849
#        187760
#        195945
#        208897
#        218140
#        230380
#        242074
#        254539
#        265487
#
# Disc length: 3698 seconds
#
# Revision: 0
# Processed by: cddbd v1.5.2PL0 Copyright (c) Steve Scherf et al.
# Submitted via: ExactAudioCopy v1.0b3
#
DISCID=480e7019
DTITLE=Various Artist - Ain't Gonna Hush CD1
DYEAR=1900
DGENRE=R and B
TTITLE0=Aretha Franklin - Rough Lover
TTITLE1=Mary Ann Fisher - Put On My Shoes
TTITLE2=LaVern Baker - Love Me Right
TTITLE3=Cordella De Milo - Ain't Gonna Hush
TTITLE4=Wynona Carr - Jump Jack, Jump!
TTITLE5=Dakota Station - My Babe
TTITLE6=Mari Jones - Down In Texas
TTITLE7=Big Mama Thornton - You Did Me Wrong
TTITLE8=Lula Reed - Say Hey Pretty Baby
TTITLE9=Tiny Topsy - Miss You
TTITLE10=Evelyn Freeman - Didn't It Rain
TTITLE11=Rose Mitchell - Baby Please Don't Go
TTITLE12=Etta James - Nobody Loves You Like Me
TTITLE13=Ruth Brown - Mambo Baby
TTITLE14=Annisteen Allen - Fujiyama Mama
TTITLE15=Blanche Thomas - You Ain't Such A Much
TTITLE16=Etta James - Tough Lover
TTITLE17=Aggie Dukes - John John
TTITLE18=Carmen Taylor - Ding Dong
TTITLE19=Baby Washington - Move On
TTITLE20=Varetta Dillard - Scorched
TTITLE21=Odessa Harris - A Rockin' Good Way
TTITLE22=Big Maybelle - Whole Lotta Shakin' Goin' On
TTITLE23=Big Mama Thornton - Big Mama's Coming Home
TTITLE24=Mamie Jenkins - Hambone
EXTD=
EXTT0=
EXTT1=
EXTT2=
EXTT3=
EXTT4=
EXTT5=
EXTT6=
EXTT7=
EXTT8=
EXTT9=
EXTT10=
EXTT11=
EXTT12=
EXTT13=
EXTT14=
EXTT15=
EXTT16=
EXTT17=
EXTT18=
EXTT19=
EXTT20=
EXTT21=
EXTT22=
EXTT23=
EXTT24=
PLAYORDER=
